<svg id="visual" viewBox="0 0 960 540" width="960" height="540" xmlns="http://www.w3.org/2000/svg" xmlns:xlink="http://www.w3.org/1999/xlink" version="1.1"><path d="M0 418L26.7 409.5C53.3 401 106.7 384 160 374.3C213.3 364.7 266.7 362.3 320 375C373.3 387.7 426.7 415.3 480 433.2C533.3 451 586.7 459 640 453.8C693.3 448.7 746.7 430.3 800 411.7C853.3 393 906.7 374 933.3 364.5L960 355L960 541L933.3 541C906.7 541 853.3 541 800 541C746.7 541 693.3 541 640 541C586.7 541 533.3 541 480 541C426.7 541 373.3 541 320 541C266.7 541 213.3 541 160 541C106.7 541 53.3 541 26.7 541L0 541Z" fill="#0066FF" stroke-linecap="round" stroke-linejoin="miter"></path></svg>